<svg xmlns="http://www.w3.org/2000/svg" fill="none" viewBox="0 0 20 19"><path fill="#E5E5E5" d="m19.209 6.675-5.95-.865L10.597.417a.753.753 0 0 0-1.345 0L6.593 5.81l-5.951.865a.749.749 0 0 0-.415 1.28l4.305 4.197-1.017 5.928a.749.749 0 0 0 1.088.79l5.322-2.799 5.323 2.798a.749.749 0 0 0 1.088-.79l-1.018-5.927 4.306-4.197a.749.749 0 0 0 .218-.43.747.747 0 0 0-.633-.85Zm-5.702 4.887.846 4.929-4.428-2.325-4.427 2.327.846-4.929-3.581-3.492 4.95-.72L9.925 2.87l2.213 4.483 4.95.72-3.582 3.49Z"/></svg>
