<svg xmlns="http://www.w3.org/2000/svg" viewBox="0 0 93.25 93.25"><defs><style>.a{fill:#edddd6;}.b{fill:#46467f;}.c{fill:#fca397;}.d{fill:#7c6053;}.e{fill:#f7734f;}.f{fill:#ffbf69;}</style></defs><path class="a" d="M93.25,46.63a46.58,46.58,0,0,1-19,37.54s-.05,0-.07.06c-.27.2-.54.4-.82.58a46.6,46.6,0,0,1-57.81-3.42A48.09,48.09,0,0,1,11,76.7,46.62,46.62,0,1,1,93.25,46.63Z"/><path class="b" d="M84.88,73.28a46.64,46.64,0,0,1-28.63,19c0-8.65.52-15.52.52-15.52s14.54-21,14.74-20.79C73.08,57.23,79,62.39,84.88,73.28Z"/><path class="b" d="M74.19,84.23a46.61,46.61,0,0,1-58.63-2.84A48.09,48.09,0,0,1,11,76.7c2.85-9.68,9.1-17,11-19.16a11.19,11.19,0,0,1,1.59-1.48s0,0,0,0a24.2,24.2,0,0,1,8.89-3.91h.06a55,55,0,0,1,9.94-1.4c1.17-.06,1.87-.06,1.87-.06s6,.59,12.52,1.61c5.81.91,12,2.16,14.61,3.66a1.18,1.18,0,0,1,.35.38C73.31,58.68,74,70.46,74.19,84.23Z"/><path d="M32.56,29.27s.39,7,3.54,7.32,7.78-3.66,7.78-3.66l-2.17-7.87Z"/><path class="c" d="M41.65,42.34l.14,11s2.12,3.14,8.85,3.64c5,.36,6.76-.73,6.76-.73l-.78-5.55-.76-5.42-12.17-2.5Z"/><path d="M44.36,42.82a3.7,3.7,0,0,0,.33,1.06c2.5,5.46,9.22,6.58,12,6.8L56,45.27Z"/><path class="c" d="M58.2,20.23s5.88,13.71,3.68,21.38S52.69,48,48.51,46.5a13.79,13.79,0,0,1-6.1-4.09,5.9,5.9,0,0,1-6.51-2.35c-2.59-3.66-.95-7.82,1.28-8.76s4.89.69,4.89.69L40,28S48.9,7.87,58.2,20.23Z"/><path d="M41.71,38a.46.46,0,0,1-.29-.1l-5-3.51a.5.5,0,0,1,.57-.81l5,3.51a.5.5,0,0,1,.12.69A.5.5,0,0,1,41.71,38Z"/><path d="M37.2,38a.5.5,0,0,1-.12-1l3.24-.87a.52.52,0,0,1,.62.36.5.5,0,0,1-.36.61l-3.25.87Z"/><path d="M48.71,26.87a.47.47,0,0,1-.25-.07.51.51,0,0,1-.18-.69,3.46,3.46,0,0,1,4.23-1.65.5.5,0,0,1,.28.65.51.51,0,0,1-.65.28,2.47,2.47,0,0,0-3,1.23A.5.5,0,0,1,48.71,26.87Z"/><path d="M59.69,25.56a.51.51,0,0,1-.31-.11A2.1,2.1,0,0,0,57,25.23a.51.51,0,0,1-.69-.18.5.5,0,0,1,.17-.68,3.09,3.09,0,0,1,3.5.3.49.49,0,0,1,.07.7A.51.51,0,0,1,59.69,25.56Z"/><path d="M57.77,37.23l-.13,0a.5.5,0,0,1-.36-.61c.7-2.58-1.12-6.46-1.14-6.5a.5.5,0,1,1,.91-.43c.08.17,2,4.25,1.2,7.19A.5.5,0,0,1,57.77,37.23Z"/><path d="M58.69,30.83a.49.49,0,0,1-.48-.37L57.5,28a.5.5,0,0,1,.35-.61.49.49,0,0,1,.61.34l.71,2.51a.5.5,0,0,1-.34.62Z"/><path d="M51.28,31a.51.51,0,0,1-.48-.37l-.71-2.51a.5.5,0,1,1,1-.27l.7,2.51a.49.49,0,0,1-.34.62Z"/><path d="M59,22.22s-.81-1.09-3.55-1.09a5.93,5.93,0,0,0-4.32,1.95s-.23,5-3.93,7.45S42.07,32,42.07,32l-2.71-.94-2-3.93,7.74-8.49,9.3-4L59,19.79Z"/><path d="M55,40.42a4.11,4.11,0,0,1-3.82-2.3.5.5,0,0,1,.23-.67.51.51,0,0,1,.67.23,3.23,3.23,0,0,0,3.13,1.73.5.5,0,0,1,.1,1A1.36,1.36,0,0,1,55,40.42Z"/><path class="d" d="M34.09,35.72A14.19,14.19,0,0,1,31,26.21l.08-.54s-3.19-.35-2.13-4.59,6.48-9.91,14.92-12S59,19.79,59,19.79s-7.06-.37-12.37,3.64-7.25,7.62-7.25,7.62Z"/><path class="e" d="M52.74,57.32a23.19,23.19,0,0,1-12-3.52.5.5,0,0,1,.56-.83c.07.05,7.48,5,15.92,2.78a.5.5,0,0,1,.25,1A18.91,18.91,0,0,1,52.74,57.32Z"/><path class="f" d="M31,26.71a.54.54,0,0,1-.25-.06.51.51,0,0,1-.19-.68l1.6-2.79a.49.49,0,0,1,.68-.18.5.5,0,0,1,.19.68l-1.6,2.78A.5.5,0,0,1,31,26.71Z"/><path class="e" d="M74.26,84.17s-.05,0-.07.06c-.27.2-.54.4-.82.58L70.81,72.05a.5.5,0,0,1,.39-.59.49.49,0,0,1,.59.39Z"/></svg>